<svg
   xmlns="http://www.w3.org/2000/svg"
   id="svg41"
   version="1.1"
   viewBox="0 0 24 24"
   height="24"
   width="24">
 <g
    fill="#333"
    id="Group-9">
   <circle
      r="1.18429907"
      cy="1.68914282"
      cx="12.005625"
      id="Oval" />
   <circle
      r="1.18429907"
      cy="8.57961011"
      cx="15.4508586"
      id="Oval-Copy-8" />
   <circle
      r="1.18429907"
      cy="5.13437646"
      cx="18.8960923"
      id="Oval-Copy-11" />
   <circle
      r="1.18429907"
      cy="1.68914282"
      cx="22.3413259"
      id="Oval-Copy-15" />
   <circle
      r="1.18429907"
      cy="8.57961011"
      cx="8.56039136"
      id="Oval-Copy-6" />
   <circle
      r="1.18429907"
      cy="15.4700774"
      cx="8.56039136"
      id="Oval-Copy-5" />
   <circle
      r="1.18429907"
      cy="5.13437646"
      cx="12.005625"
      id="circle14" />
   <circle
      r="1.18429907"
      cy="8.57961011"
      cx="12.005625"
      id="Oval-Copy-7" />
   <circle
      r="1.18429907"
      cy="5.13437646"
      cx="5.11515771"
      id="Oval-Copy-12" />
   <circle
      r="1.18429907"
      cy="1.68914282"
      cx="1.66992407"
      id="Oval-Copy-16" />
   <circle
      r="1.18429907"
      cy="12.0248437"
      cx="1.66992407"
      id="circle19" />
   <circle
      r="1.18429907"
      cy="12.0248437"
      cx="18.8960923"
      id="circle21" />
   <circle
      r="1.18429907"
      cy="12.0248437"
      cx="22.3413259"
      id="circle23" />
   <circle
      r="1.18429907"
      cy="12.0248437"
      cx="5.11515771"
      id="circle25" />
   <circle
      r="1.18429907"
      cy="12.0248437"
      cx="8.56039136"
      id="Oval-Copy-3" />
   <circle
      r="1.18429907"
      cy="15.4700774"
      cx="12.005625"
      id="Oval-Copy-9" />
   <circle
      r="1.18429907"
      cy="12.0248437"
      cx="15.4508586"
      id="Oval-Copy-4" />
   <circle
      r="1.18429907"
      cy="15.4700774"
      cx="15.4508586"
      id="Oval-Copy-10" />
   <circle
      r="1.18429907"
      cy="18.915311"
      cx="5.11515771"
      id="Oval-Copy-13" />
   <circle
      r="1.18429907"
      cy="22.3605447"
      cx="1.66992407"
      id="Oval-Copy-17" />
   <circle
      r="1.18429907"
      cy="18.915311"
      cx="18.8960923"
      id="Oval-Copy-14" />
   <circle
      r="1.18429907"
      cy="22.3605447"
      cx="22.3413259"
      id="Oval-Copy-18" />
   <circle
      r="1.18429907"
      cy="18.915311"
      cx="12.005625"
      id="circle35" />
   <circle
      r="1.18429907"
      cy="22.3605447"
      cx="12.005625"
      id="circle37" />
 </g>
</svg>