<?xml version="1.0" encoding="UTF-8"?>
<svg width="120px" height="40px" version="1.1" viewBox="0 0 120 40" xmlns="http://www.w3.org/2000/svg" xmlns:cc="http://creativecommons.org/ns#" xmlns:dc="http://purl.org/dc/elements/1.1/" xmlns:rdf="http://www.w3.org/1999/02/22-rdf-syntax-ns#">
<g transform="translate(0,-257)">
<switch transform="matrix(.26458 0 0 .26458 82.575 -27.68)" fill="#5f8dd3">
<g fill="#5f8dd3">
<path d="m-242.74 1139c11.353 0 20.35-9.2112 20.35-20.35 0-11.353-9.2112-20.35-20.35-20.35s-20.35 9.2112-20.35 20.35c-0.21421 11.139 8.997 20.35 20.35 20.35zm0-33.417c7.0691 0 12.853 5.7838 12.853 12.853 0 7.0691-5.7838 12.853-12.853 12.853s-12.853-5.7838-12.853-12.853c-0.21421-7.069 5.7838-12.853 12.853-12.853zm68.977 16.709c9.2112 0 16.709-7.4975 16.709-16.709s-7.4975-16.709-16.709-16.709-16.709 7.4975-16.709 16.709c-0.21422 9.2112 7.2833 16.709 16.709 16.709zm0-26.134c5.1411 0 9.2112 4.2842 9.2112 9.2112 0 5.1411-4.2843 9.2112-9.2112 9.2112s-9.2112-4.2843-9.2112-9.2112c-0.21422-5.1412 4.0701-9.2112 9.2112-9.2112zm50.126 68.334h-20.35c-3.6416-29.133-18.208-35.345-29.776-35.345-11.568 0-26.134 6.2122-29.776 35.345h-10.925c-7.7117-13.924-18.637-17.78-28.276-17.78-9.4254 0-20.565 3.6416-28.276 17.78h-26.134c-2.1421 0-3.6416 1.7137-3.6416 3.6417 0 2.1421 1.7137 3.6416 3.6416 3.6416h22.707c-2.7848 7.2833-4.9269 16.709-5.7838 28.705 0 0.4284 0 0.8568 0.21422 1.2853-0.42843 1.7137 0.42842 3.6416 2.1421 4.4985 11.139 4.4985 22.921 6.8548 35.131 6.8548s23.992-2.3563 35.131-6.8548c1.7137-0.6427 2.5706-2.5706 2.1421-4.4985 0.21421-0.4285 0.21421-0.8569 0.21421-1.2853-1.0711-11.996-2.999-21.207-5.7838-28.705h63.836v0 0h23.778c2.1421 0 3.6416-1.7137 3.6416-3.6416 0-1.928-1.7137-3.6417-3.8558-3.6417zm-119.1 41.343c-10.282 0-20.35-1.9279-29.99-5.3553 1.2853-13.496 3.8558-24.206 8.1401-31.918 5.1411-9.6396 12.424-14.138 21.85-14.138 9.6396 0 16.709 4.7127 21.85 14.138 4.2843 7.7117 6.8548 18.422 8.1401 31.918-9.6396 3.4274-19.708 5.3553-29.99 5.3553zm46.699-41.343c2.5706-18.637 10.068-27.848 22.278-27.848 12.21 0 19.708 9.4254 22.278 27.848z" fill="#5f8dd3" stroke="#5f8dd3" stroke-linecap="round" stroke-width="6.477"/>
</g>
</switch>
<path d="m73.21 285.6c-1.2637-0.40562-1.8687-0.88518-2.35-1.8626-0.48241-0.97969-0.4962-1.16-0.4962-6.4919 0-5.4561 0.0028-5.4891 0.52733-6.4334 0.36902-0.66424 0.81229-1.0945 1.4765-1.4331 0.92044-0.4692 1.0962-0.48198 5.8006-0.42185 4.7032 0.0602 4.8764 0.0775 5.6673 0.5692 1.4884 0.92526 1.5999 1.4553 1.6052 7.6349 0.0047 5.6336-0.09256 6.4085-0.92105 7.3287-1.0012 1.112-1.3813 1.1871-6.246 1.2351-2.4943 0.0246-4.7729-0.0317-5.0637-0.1251zm7.4506-3.2183c0.2534-0.13345 0.53047-0.34694 0.6157-0.47459 0.08524-0.12767 0.15642-2.2017 0.1582-4.6089 0.0041-5.5526 0.22753-5.2206-3.5133-5.2206-2.191 0-2.7423 0.063-3.0585 0.34909-0.35054 0.31723-0.38574 0.75626-0.38574 4.8111 0 4.5542 0.0657 4.9619 0.84372 5.24 0.62389 0.22298 4.8792 0.14631 5.3399-0.0962zm-24.324-5.0308v-8.2263h4.0077v13.289h8.6482v3.164h-12.656zm31.64 0v-8.2263l5.7479 4e-3c5.1388 4e-3 5.839 0.0461 6.6082 0.39536 1.793 0.81433 2.2631 2.0758 2.162 5.801-0.0826 3.0424-0.43204 3.9518-1.7958 4.673l-0.85014 0.44957 0.67005 1.1408c0.36854 0.62743 1.0276 1.7815 1.4647 2.5646l0.79463 1.4238h-4.4356l-1.3634-2.4784-1.3634-2.4784-3.4205-0.1226v5.0794h-4.2186zm10.032-0.29941c0.35373-0.25864 0.40944-0.56237 0.40944-2.2318 0-2.5452 0.01949-2.5312-3.5207-2.5312h-2.7018v5.0624h2.7018c2.0005 0 2.8081-0.0778 3.1112-0.29941zm7.0538 0.29941v-8.2263h12.867v3.164h-8.8769l0.0616 1.6347 0.0616 1.6347 6.8553 0.116v3.1535h-6.9778l0.0613 1.7402 0.0612 1.7402 8.7537 0.114v3.1554h-12.867z" fill="#333" stroke-width=".21093"/>
</g>
</svg>
