<svg width="24px" height="24px" viewBox="0 0 24 24" version="1.1" xmlns="http://www.w3.org/2000/svg" xmlns:xlink="http://www.w3.org/1999/xlink">
    <g stroke="none" stroke-width="1" fill="none" fill-rule="evenodd">
      <polygon points="0 0 24 0 24 24 0 24"></polygon>
      <path d="M14,2 L6,2 C4.9,2 4,2.9 4,4 L4,20 C4,21.1 4.9,22 6,22 L18,22 C19.1,22 20,21.1 20,20 L20,8 L14,2 Z M18,20 L6,20 L6,4 L11,4 L11,11 L18,11 L18,20 Z M13,9 L13,3.5 L18.5,9 L13,9 Z M8,13 L16,13 L16,14.8 L8,14.8 L8,13 Z M8,16.5 L16,16.5 L16,18.3 L8,18.3 L8,16.5 Z" id="Fill-1" fill="#242E36"></path>
    </g>
</svg>
