<?xml version="1.0" encoding="UTF-8"?>
<svg width="24" height="24" viewBox="0 0 24 24" version="1.1" xmlns="http://www.w3.org/2000/svg" xmlns:xlink="http://www.w3.org/1999/xlink">
    <g id="logo-google" stroke="none" stroke-width="1" fill="none" fill-rule="evenodd">
        <path d="M19.8444,10.4332 L19.2,10.4332 L19.2,10.4 L12,10.4 L12,13.6 L16.5212,13.6 C15.8616,15.4628 14.0892,16.8 12,16.8 C9.3492,16.8 7.2,14.6508 7.2,12 C7.2,9.3492 9.3492,7.2 12,7.2 C13.2236,7.2 14.3368,7.6616 15.1844,8.4156 L17.4472,6.1528 C16.0184,4.8212 14.1072,4 12,4 C7.582,4 4,7.582 4,12 C4,16.418 7.582,20 12,20 C16.418,20 20,16.418 20,12 C20,11.4636 19.9448,10.94 19.8444,10.4332 Z" id="Path" fill="#FFC107" fill-rule="nonzero"></path>
        <path d="M4.9224,8.2764 L7.5508,10.204 C8.262,8.4432 9.9844,7.2 12,7.2 C13.2236,7.2 14.3368,7.6616 15.1844,8.4156 L17.4472,6.1528 C16.0184,4.8212 14.1072,4 12,4 C8.9272,4 6.2624,5.7348 4.9224,8.2764 Z" id="Path" fill="#FF3D00" fill-rule="nonzero"></path>
        <path d="M12,20 C14.0664,20 15.944,19.2092 17.3636,17.9232 L14.8876,15.828 C14.0844,16.4364 13.086,16.8 12,16.8 C9.9192,16.8 8.1524,15.4732 7.4868,13.6216 L4.878,15.6316 C6.202,18.2224 8.8908,20 12,20 Z" id="Path" fill="#4CAF50" fill-rule="nonzero"></path>
        <path d="M19.8444,10.4332 L19.2,10.4332 L19.2,10.4 L12,10.4 L12,13.6 L16.5212,13.6 C16.2044,14.4948 15.6288,15.2664 14.8864,15.8284 C14.8868,15.828 14.8872,15.828 14.8876,15.8276 L17.3636,17.9228 C17.1884,18.082 20,16 20,12 C20,11.4636 19.9448,10.94 19.8444,10.4332 Z" id="Path" fill="#1976D2" fill-rule="nonzero"></path>
    </g>
</svg>
