<svg version="1.1" xmlns="http://www.w3.org/2000/svg" xmlns:xlink="http://www.w3.org/1999/xlink" width="512" height="512" viewBox="0 0 512 512">
<path fill="#f44336" d="M446.72 234.667c-9.813-88.96-80.427-159.573-169.387-169.387v-43.947h-42.666v43.947c-24.107 2.56-46.72 9.814-67.413 20.694l32 32c17.494-7.254 36.694-11.306 56.746-11.306 82.56 0 149.333 66.773 149.333 149.333 0 20.053-4.053 39.254-11.094 56.534l32 32c10.666-20.48 17.92-43.094 20.694-67.2h43.733v-42.666h-43.947zM64 91.094l43.52 43.52c-22.826 27.946-38.186 62.293-42.24 100.054h-43.947v42.666h43.947c9.814 88.96 80.427 159.574 169.387 169.387v43.947h42.667v-43.947c37.76-4.267 72.106-19.413 100.053-42.24l43.52 43.52 27.094-27.094-356.906-356.906-27.094 27.094zM347.094 374.187c-25.173 19.413-56.747 31.147-91.094 31.147-82.56 0-149.333-66.774-149.333-149.333 0-34.346 11.733-65.92 31.147-91.094l209.28 209.28z"></path>
</svg>
